<svg width="22" height="22" viewBox="0 0 22 22" fill="none" xmlns="http://www.w3.org/2000/svg">
<g id="Icon_addnoti">
<g id="Vector">
<path d="M12.945 1.375C12.945 2.13439 12.3203 2.75 11.5498 2.75C10.7793 2.75 10.1546 2.13439 10.1546 1.375C10.1546 0.615608 10.7793 0 11.5498 0C12.3203 0 12.945 0.615608 12.945 1.375Z" fill="#BDBDBD"/>
<path d="M3.99466 8.22625C4.3221 4.3537 7.60684 1.375 11.5498 1.375C15.4928 1.375 18.7775 4.3537 19.105 8.22625L19.7949 16.3858C19.8627 17.1875 19.2208 17.875 18.4045 17.875H4.69507C3.87884 17.875 3.23694 17.1875 3.30472 16.3858L3.99466 8.22625Z" fill="#BDBDBD"/>
<path d="M14.3401 19.25C14.3401 20.7688 13.0909 22 11.5498 22C10.0087 22 8.75947 20.7688 8.75947 19.25H14.3401Z" fill="#BDBDBD"/>
</g>
<path id="Vector (Stroke)" fill-rule="evenodd" clip-rule="evenodd" d="M11.5496 5.5C12.0964 5.5 12.5396 5.94324 12.5396 6.49V9.46H15.5096C16.0564 9.46 16.4996 9.90324 16.4996 10.45C16.4996 10.9968 16.0564 11.44 15.5096 11.44H12.5396V14.41C12.5396 14.9568 12.0964 15.4 11.5496 15.4C11.0028 15.4 10.5596 14.9568 10.5596 14.41V11.44H7.58961C7.04285 11.44 6.59961 10.9968 6.59961 10.45C6.59961 9.90324 7.04285 9.46 7.58961 9.46H10.5596V6.49C10.5596 5.94324 11.0028 5.5 11.5496 5.5Z" fill="white"/>
</g>
</svg>
