<svg width="20" height="20" viewBox="0 0 20 20" fill="none" xmlns="http://www.w3.org/2000/svg">
<g id="Icon_baby_anni">
<g id="Vector">
<path d="M17.0894 12.3292C16.3389 15.2686 13.6734 17.442 10.5002 17.442C7.32701 17.442 4.66145 15.2686 3.91105 12.3291C3.8419 12.3377 3.77149 12.3421 3.70003 12.3421C2.76112 12.3421 2 11.581 2 10.6421C2 9.70321 2.76112 8.94206 3.70003 8.94206C3.73852 8.94206 3.7767 8.94336 3.81454 8.94589C3.84695 8.94803 3.87911 8.95107 3.911 8.95503C4.66134 6.01548 7.32693 3.84194 10.5002 3.84194C13.6735 3.84194 16.339 6.01548 17.0894 8.95496C17.1584 8.94647 17.2287 8.94206 17.3 8.94206C18.2389 8.94206 19 9.70321 19 10.6421C19 11.581 18.2389 12.3421 17.3 12.3421C17.2287 12.3421 17.1584 12.3378 17.0894 12.3292Z" fill="#FFCFA8"/>
<path fill-rule="evenodd" clip-rule="evenodd" d="M11.0314 3.51788C10.5118 3.51788 10.0736 3.86591 9.93702 4.34156C9.88844 4.51077 9.75024 4.65628 9.5742 4.65628H8.80008C8.56536 4.65628 8.37151 4.46471 8.40863 4.23294C8.61136 2.96713 9.70842 2 11.0314 2C12.4984 2 13.6876 3.18926 13.6876 4.65628C13.6876 6.12331 12.4984 7.31257 11.0314 7.31257C10.6122 7.31257 10.2724 6.97278 10.2724 6.55363C10.2724 6.13448 10.6122 5.79469 11.0314 5.79469C11.6601 5.79469 12.1698 5.28501 12.1698 4.65628C12.1698 4.02756 11.6601 3.51788 11.0314 3.51788Z" fill="#795548"/>
<path d="M10.2501 10.3753C10.2501 11.4799 9.35466 12.3753 8.25008 12.3753C7.14549 12.3753 6.25005 11.4799 6.25005 10.3753C6.25005 9.27071 7.14549 8.37526 8.25008 8.37526C9.35466 8.37526 10.2501 9.27071 10.2501 10.3753Z" fill="white"/>
<path d="M9.50009 10.3753C9.50009 11.0657 8.94044 11.6253 8.25008 11.6253C7.55971 11.6253 7.00006 11.0657 7.00006 10.3753C7.00006 9.68492 7.55971 9.12527 8.25008 9.12527C8.94044 9.12527 9.50009 9.68492 9.50009 10.3753Z" fill="black"/>
<path d="M8.12508 9.87528C8.12508 10.0134 8.01315 10.1253 7.87507 10.1253C7.737 10.1253 7.62507 10.0134 7.62507 9.87528C7.62507 9.73721 7.737 9.62528 7.87507 9.62528C8.01315 9.62528 8.12508 9.73721 8.12508 9.87528Z" fill="white"/>
<path d="M8.37508 10.6253C8.37508 10.6943 8.31911 10.7503 8.25008 10.7503C8.18104 10.7503 8.12508 10.6943 8.12508 10.6253C8.12508 10.5563 8.18104 10.5003 8.25008 10.5003C8.31911 10.5003 8.37508 10.5563 8.37508 10.6253Z" fill="white"/>
<path d="M14.7502 10.3753C14.7502 11.4799 13.8547 12.3753 12.7501 12.3753C11.6456 12.3753 10.7501 11.4799 10.7501 10.3753C10.7501 9.27071 11.6456 8.37526 12.7501 8.37526C13.8547 8.37526 14.7502 9.27071 14.7502 10.3753Z" fill="white"/>
<path d="M14.0001 10.3753C14.0001 11.0657 13.4404 11.6253 12.7501 11.6253C12.0597 11.6253 11.5001 11.0657 11.5001 10.3753C11.5001 9.68492 12.0597 9.12527 12.7501 9.12527C13.4404 9.12527 14.0001 9.68492 14.0001 10.3753Z" fill="black"/>
<path d="M12.6251 9.87528C12.6251 10.0134 12.5131 10.1253 12.3751 10.1253C12.237 10.1253 12.1251 10.0134 12.1251 9.87528C12.1251 9.73721 12.237 9.62528 12.3751 9.62528C12.5131 9.62528 12.6251 9.73721 12.6251 9.87528Z" fill="white"/>
<path d="M12.8751 10.6253C12.8751 10.6943 12.8191 10.7503 12.7501 10.7503C12.681 10.7503 12.6251 10.6943 12.6251 10.6253C12.6251 10.5563 12.681 10.5003 12.7501 10.5003C12.8191 10.5003 12.8751 10.5563 12.8751 10.6253Z" fill="white"/>
<path fill-rule="evenodd" clip-rule="evenodd" d="M9.05269 12.7223C9.15901 12.6027 9.34217 12.5919 9.46178 12.6983C10.0957 13.2617 11.0509 13.2617 11.6847 12.6983C11.8043 12.5919 11.9875 12.6027 12.0938 12.7223C12.2002 12.8419 12.1894 13.0251 12.0698 13.1314C11.2163 13.89 9.93021 13.89 9.07675 13.1314C8.95714 13.0251 8.94636 12.8419 9.05269 12.7223Z" fill="black"/>
</g>
</g>
</svg>
