<svg width="20" height="20" viewBox="0 0 20 20" fill="none" xmlns="http://www.w3.org/2000/svg">
<path d="M5.75676 6.55357C4.23424 6.55357 3 7.80078 3 9.33929V9.80357H17V9.33929C17 7.80078 15.7658 6.55357 14.2432 6.55357H5.75676Z" fill="#222222"/>
<path d="M17 11.1964H3V14.2143C3 15.7528 4.23424 17 5.75676 17H14.2432C15.7658 17 17 15.7528 17 14.2143V11.1964Z" fill="#222222"/>
<path fill-rule="evenodd" clip-rule="evenodd" d="M7.78378 7.25C7.40316 7.25 7.09459 6.9382 7.09459 6.55357V6.08929C7.09459 4.93541 8.02028 4 9.16216 4L11 4C12.1419 4 13.0676 4.93541 13.0676 6.08929V6.55357C13.0676 6.9382 12.759 7.25 12.3784 7.25C11.9978 7.25 11.6892 6.9382 11.6892 6.55357V6.08929C11.6892 5.70466 11.3806 5.39286 11 5.39286H9.16216C8.78153 5.39286 8.47297 5.70466 8.47297 6.08929V6.55357C8.47297 6.9382 8.16441 7.25 7.78378 7.25Z" fill="#222222"/>
</svg>
