<svg width="22" height="22" viewBox="0 0 22 22" fill="none" xmlns="http://www.w3.org/2000/svg">
<path d="M3.92543 17.6552L8.3768 6.40468L15.1759 13.2038L3.92543 17.6552Z" fill="#222222" stroke="#222222" stroke-width="2" stroke-linejoin="round"/>
<path d="M14.8032 6.94019C15.4886 6.92196 16.7707 6.33762 16.4163 4.14616C16.3056 3.46133 16.4732 1.94376 18.0295 1.35213" stroke="#222222" stroke-width="1.2" stroke-linecap="round"/>
<path d="M5.35571 6.44953C5.37826 6.25217 5.26615 5.72702 4.63733 5.20525C4.44082 5.0422 4.02203 4.56507 3.91894 3.96097" stroke="#222222" stroke-width="1.2" stroke-linecap="round"/>
<path d="M16.4997 9.99513C17.2776 9.21732 19.25 8.76168 20.3888 9.21732" stroke="#222222" stroke-width="1.2" stroke-linecap="round"/>
<path d="M10.6591 4.46224C11.2827 3.83868 11.5501 2.16187 11 1.06173" stroke="#222222" stroke-width="1.2" stroke-linecap="round"/>
<rect x="13" y="5" width="1" height="1" rx="0.3" fill="#222222"/>
<rect x="7" y="3" width="1" height="1" rx="0.3" fill="#222222"/>
<rect x="15" y="1" width="1" height="1" rx="0.3" fill="#222222"/>
<rect x="18" y="12" width="1" height="1" rx="0.3" fill="#222222"/>
<rect x="21" y="13" width="1" height="1" rx="0.3" fill="#222222"/>
<path d="M6.38593 14.2832L9.4972 17.3945M9.41533 11.2538L12.5266 14.3651" stroke="white" stroke-width="1.5" stroke-linecap="round"/>
</svg>
