<svg width="38" height="38" viewBox="0 0 38 38" fill="none" xmlns="http://www.w3.org/2000/svg">
<circle cx="19" cy="19" r="15" fill="#424242"/>
<path d="M19.0002 18.9999C20.8418 18.9999 22.3335 17.5083 22.3335 15.6666C22.3335 13.8249 20.8418 12.3333 19.0002 12.3333C17.1585 12.3333 15.6668 13.8249 15.6668 15.6666C15.6668 17.5083 17.1585 18.9999 19.0002 18.9999ZM19.0002 20.6666C16.7752 20.6666 12.3335 21.7833 12.3335 23.9999V24.8333C12.3335 25.2916 12.7085 25.6666 13.1668 25.6666H24.8335C25.2918 25.6666 25.6668 25.2916 25.6668 24.8333V23.9999C25.6668 21.7833 21.2252 20.6666 19.0002 20.6666Z" fill="white"/>
</svg>
