<svg width="16" height="16" viewBox="0 0 16 16" fill="none" xmlns="http://www.w3.org/2000/svg">
<g clip-path="url(#clip0_637_2959)">
<circle cx="8" cy="8" r="8" fill="#BDBDBD"/>
<path d="M9.5 5.58824C9.5 6.46539 8.82843 7.17647 8 7.17647C7.17157 7.17647 6.5 6.46539 6.5 5.58824C6.5 4.71108 7.17157 4 8 4C8.82843 4 9.5 4.71108 9.5 5.58824Z" fill="white"/>
<path d="M11 10.1261C11 11.4627 9.65685 11.5 8 11.5C6.34315 11.5 5 11.4627 5 10.1261C5 8.78943 6.34315 7.70588 8 7.70588C9.65685 7.70588 11 8.78943 11 10.1261Z" fill="white"/>
<path d="M5 9.91177H11V10.4412C11 11.0259 10.5523 11.5 10 11.5H6C5.44772 11.5 5 11.0259 5 10.4412V9.91177Z" fill="white"/>
</g>
<defs>
<clipPath id="clip0_637_2959">
<rect width="16" height="16" fill="white"/>
</clipPath>
</defs>
</svg>
