<svg width="22" height="21" viewBox="0 0 22 21" fill="none" xmlns="http://www.w3.org/2000/svg">
<line x1="9.16788" y1="12.2954" x2="1.58209" y2="19.8812" stroke="#222222" stroke-width="2" stroke-linecap="round"/>
<path d="M12.368 0.832379C13.1456 0.0957321 14.4063 0.095732 15.1838 0.832379L21 6.50002C21.7776 7.23667 21.7776 8.43101 21 9.16766C20.2224 9.90431 18.9617 9.90431 18.1842 9.16766L12.368 3.50002C11.5904 2.76337 11.5904 1.56903 12.368 0.832379Z" fill="#222222"/>
<path d="M3.58318 6.77699C4.36075 6.04034 5.62145 6.04034 6.39902 6.77699L14.8465 14.7799C15.6241 15.5165 15.6241 16.7109 14.8465 17.4475C14.069 18.1842 12.8083 18.1842 12.0307 17.4475L3.58318 9.44463C2.80561 8.70798 2.80561 7.51364 3.58318 6.77699Z" fill="#222222"/>
<path d="M13.4386 2.77554L19.0703 8.11081L14.3772 14.3353L6.86832 7.2216L13.4386 2.77554Z" fill="#222222"/>
</svg>
