<svg width="48" height="48" viewBox="0 0 48 48" fill="none" xmlns="http://www.w3.org/2000/svg">
<path d="M24 14.7833C28.6 14.7833 32.3333 18.5167 32.3333 23.1167C32.3333 23.9667 32.1667 24.7833 31.9333 25.55L37.0333 30.65C39.35 28.6 41.1833 26.0333 42.3333 23.1C39.45 15.8 32.3333 10.6167 24 10.6167C21.8833 10.6167 19.85 10.95 17.9333 11.5667L21.55 15.1833C22.3333 14.95 23.15 14.7833 24 14.7833ZM8.51666 9.21666C7.86666 9.86666 7.86666 10.9167 8.51666 11.5667L11.8 14.85C9.09999 17 6.94999 19.8333 5.66666 23.1167C8.54999 30.4333 15.6667 35.6167 24 35.6167C26.5333 35.6167 28.95 35.1167 31.1833 34.25L35.7167 38.7833C36.3667 39.4333 37.4167 39.4333 38.0667 38.7833C38.7167 38.1333 38.7167 37.0833 38.0667 36.4333L10.8833 9.21666C10.2333 8.56666 9.16666 8.56666 8.51666 9.21666ZM24 31.45C19.4 31.45 15.6667 27.7167 15.6667 23.1167C15.6667 21.8333 15.9667 20.6167 16.4833 19.55L19.1 22.1667C19.05 22.4667 19 22.7833 19 23.1167C19 25.8833 21.2333 28.1167 24 28.1167C24.3333 28.1167 24.6333 28.0667 24.95 28L27.5667 30.6167C26.4833 31.15 25.2833 31.45 24 31.45ZM28.95 22.5667C28.7 20.2333 26.8667 18.4167 24.55 18.1667L28.95 22.5667Z" fill="#424242"/>
</svg>
