<svg width="14" height="20" viewBox="0 0 14 20" fill="none" xmlns="http://www.w3.org/2000/svg">
<path d="M0 6.25C0 5.55964 0.522334 5 1.16667 5H12.8333C13.4777 5 14 5.55964 14 6.25V17.5C14 18.8807 12.9553 20 11.6667 20H2.33333C1.04467 20 0 18.8807 0 17.5V6.25Z" fill="#222222"/>
<path d="M0 2.91667C0 1.99619 0.696446 1.25 1.55556 1.25H12.4444C13.3036 1.25 14 1.99619 14 2.91667C14 3.3769 13.6518 3.75 13.2222 3.75H0.777778C0.348223 3.75 0 3.3769 0 2.91667Z" fill="#222222"/>
<path d="M4.66667 1.25C4.66667 0.559644 5.189 0 5.83333 0H8.16667C8.811 0 9.33333 0.559644 9.33333 1.25H4.66667Z" fill="#222222"/>
<path d="M5 10L5 15M9 10L9 15" stroke="white" stroke-width="1.5" stroke-linecap="round"/>
</svg>
