<svg width="20" height="20" viewBox="0 0 20 20" fill="none" xmlns="http://www.w3.org/2000/svg">
<g id="Icon_employ_anni">
<g id="Vector">
<path d="M2 9.28565H18V11.5714H2V9.28565Z" fill="#634337"/>
<path fill-rule="evenodd" clip-rule="evenodd" d="M7.37959 6.77143C6.93326 6.77143 6.57143 6.4096 6.57143 5.96327V5.42449C6.57143 4.08548 7.65691 3 8.99592 3L11.151 3C12.49 3 13.5755 4.08548 13.5755 5.42449V5.96327C13.5755 6.4096 13.2137 6.77143 12.7673 6.77143C12.321 6.77143 11.9592 6.4096 11.9592 5.96327V5.42449C11.9592 4.97815 11.5974 4.61633 11.151 4.61633L8.99592 4.61633C8.54958 4.61633 8.18776 4.97815 8.18776 5.42449V5.96327C8.18776 6.4096 7.82593 6.77143 7.37959 6.77143Z" fill="#634337"/>
<path d="M18 11.2246H2V14.6735C2 16.4318 3.41056 17.8572 5.15058 17.8572H14.8494C16.5894 17.8572 18 16.4318 18 14.6735V11.2246Z" fill="#795548"/>
<path d="M5.15058 5.91819C3.41056 5.91819 2 7.34357 2 9.10187V9.63248H18V9.10187C18 7.34357 16.5894 5.91819 14.8494 5.91819H5.15058Z" fill="#795548"/>
<path d="M10.8571 9.85709H9.13784C8.66445 9.85709 8.28069 10.2408 8.28069 10.7142C8.28069 11.1876 8.66445 11.5714 9.13784 11.5714H10.8571C11.3305 11.5714 11.7143 11.1876 11.7143 10.7142C11.7143 10.2408 11.3305 9.85709 10.8571 9.85709Z" fill="#ABA19E"/>
</g>
</g>
</svg>
