<svg width="20" height="20" viewBox="0 0 20 20" fill="none" xmlns="http://www.w3.org/2000/svg">
<g id="Icon_pass_anni">
<g id="Vector">
<path fill-rule="evenodd" clip-rule="evenodd" d="M8.75 4.16211H5.625C4.17525 4.16211 3 5.32375 3 6.7567V15.4054C3 16.8383 4.17525 17.9999 5.625 17.9999H15.375C16.8247 17.9999 18 16.8383 18 15.4054V6.7567C18 5.32375 16.8247 4.16211 15.375 4.16211H12.25V5.25C12.25 6.2165 11.4665 7 10.5 7C9.5335 7 8.75 6.2165 8.75 5.25V4.16211Z" fill="#B9E9FC"/>
<path fill-rule="evenodd" clip-rule="evenodd" d="M8.75 4.16211H5.625C4.17525 4.16211 3 5.32375 3 6.7567V8.5H18V6.7567C18 5.32375 16.8247 4.16211 15.375 4.16211H12.25V5.25C12.25 6.2165 11.4665 7 10.5 7C9.5335 7 8.75 6.2165 8.75 5.25V4.16211Z" fill="#FF5862"/>
<path d="M9.75 3.75C9.75 3.33579 10.0858 3 10.5 3C10.9142 3 11.25 3.33579 11.25 3.75V5.25C11.25 5.66421 10.9142 6 10.5 6C10.0858 6 9.75 5.66421 9.75 5.25V3.75Z" fill="#A239EA"/>
<path fill-rule="evenodd" clip-rule="evenodd" d="M14.2213 10.4597C14.5197 10.7856 14.4975 11.2916 14.1716 11.59L10.2406 15.19C9.93484 15.47 9.46579 15.47 9.16002 15.19L7.09105 13.2953C6.76521 12.9969 6.74297 12.4908 7.04137 12.165C7.33977 11.8391 7.84581 11.8169 8.17165 12.1153L9.70031 13.5152L13.0911 10.41C13.4169 10.1116 13.9229 10.1339 14.2213 10.4597Z" fill="#CF0000"/>
</g>
</g>
</svg>
