<svg width="20" height="20" viewBox="0 0 20 20" fill="none" xmlns="http://www.w3.org/2000/svg">
<path fill-rule="evenodd" clip-rule="evenodd" d="M8.25 4.16216H5.125C3.67525 4.16216 2.5 5.32379 2.5 6.75675V15.4054C2.5 16.8384 3.67525 18 5.125 18H14.875C16.3247 18 17.5 16.8384 17.5 15.4054V6.75675C17.5 5.32379 16.3247 4.16216 14.875 4.16216H11.75V5.25C11.75 6.2165 10.9665 7 10 7C9.0335 7 8.25 6.2165 8.25 5.25V4.16216ZM4.25 14.5405V8.48648H15.75V14.5405C15.75 15.4958 14.9665 16.2703 14 16.2703H6C5.0335 16.2703 4.25 15.4958 4.25 14.5405Z" fill="#222222"/>
<path d="M9.25 3.75C9.25 3.33579 9.58579 3 10 3C10.4142 3 10.75 3.33579 10.75 3.75V5.25C10.75 5.66421 10.4142 6 10 6C9.58579 6 9.25 5.66421 9.25 5.25V3.75Z" fill="#222222"/>
<path fill-rule="evenodd" clip-rule="evenodd" d="M13.5602 10.0013C13.8356 10.3106 13.8081 10.7847 13.4987 11.0602L9.5677 14.5602C9.27041 14.8248 8.81814 14.8112 8.53736 14.5291L6.4684 12.4501C6.17621 12.1565 6.17735 11.6816 6.47095 11.3895C6.76454 11.0973 7.23942 11.0984 7.5316 11.392L9.10011 12.9681L12.5013 9.93986C12.8106 9.66442 13.2847 9.69192 13.5602 10.0013Z" fill="#222222"/>
</svg>
