<svg width="20" height="20" viewBox="0 0 20 20" fill="none" xmlns="http://www.w3.org/2000/svg">
<path fill-rule="evenodd" clip-rule="evenodd" d="M8.58568 3.82286C9.21427 2.72571 10.7857 2.72571 11.4143 3.82286L17.7788 14.9314C18.4074 16.0286 17.6216 17.4 16.3644 17.4H3.63555C2.37838 17.4 1.59265 16.0286 2.22123 14.9314L8.58568 3.82286ZM10.8 14.2C10.8 14.6418 10.4418 15 10 15C9.55817 15 9.2 14.6418 9.2 14.2C9.2 13.7582 9.55817 13.4 10 13.4C10.4418 13.4 10.8 13.7582 10.8 14.2ZM10.6 7.8C10.6 7.46863 10.3314 7.2 10 7.2C9.66863 7.2 9.4 7.46863 9.4 7.8V11.8C9.4 12.1314 9.66863 12.4 10 12.4C10.3314 12.4 10.6 12.1314 10.6 11.8V7.8Z" fill="#222222"/>
</svg>
