<svg width="30" height="30" viewBox="0 0 30 30" fill="none" xmlns="http://www.w3.org/2000/svg">
<path d="M15.0017 27.1875C16.3767 27.1875 17.5017 26.0625 17.5017 24.6875H12.5017C12.5017 26.0625 13.6142 27.1875 15.0017 27.1875ZM22.5017 19.6875V13.4375C22.5017 9.6 20.4517 6.3875 16.8767 5.5375V4.6875C16.8767 3.65 16.0392 2.8125 15.0017 2.8125C13.9642 2.8125 13.1267 3.65 13.1267 4.6875V5.5375C9.53915 6.3875 7.50165 9.5875 7.50165 13.4375V19.6875L5.88915 21.3C5.10165 22.0875 5.65165 23.4375 6.76415 23.4375H23.2267C24.3392 23.4375 24.9017 22.0875 24.1142 21.3L22.5017 19.6875Z" fill="#424242"/>
</svg>
