<svg width="55" height="18" viewBox="0 0 55 18" fill="none" xmlns="http://www.w3.org/2000/svg">
<g id="Logo_Typo">
<g id="Logo_Typo_2">
<path d="M12.1884 2.94517V1.03579C12.1884 0.724816 12.0052 0.439022 11.71 0.34106C10.4446 -0.0789572 9.18389 -0.0283453 8.67823 0.0626269C5.9375 0.52369 4.66417 2.57812 4.09033 3.67455C3.42934 4.93748 3.47407 6.66391 3.64546 8.12376C2.54237 7.92275 1.36916 7.54748 0.600656 6.85983C0.416938 6.69544 0 6.8264 0 7.07293V8.98275C0 9.37981 0.126111 9.77584 0.46134 9.98863C1.06596 10.3724 2.21915 10.8135 4.10848 11.0013C4.69698 13.7909 5.76365 16.1 6.56868 17.3196C6.85587 17.7547 7.35856 17.9688 7.8799 17.9688H11.0545C11.3153 17.9688 11.4266 17.5059 11.2158 17.3523C9.25997 15.9275 8.06909 13.0767 7.49757 11.0492C9.73524 10.9011 11.0618 10.4103 11.7262 9.98863C12.0614 9.77584 12.1875 9.37981 12.1875 8.98275V7.07293C12.1875 6.8264 11.7706 6.69544 11.5868 6.85983C10.4186 7.90513 8.31527 8.2286 6.94458 8.31542C6.74281 6.87443 6.76147 5.95193 6.89183 5.51899C7.15637 4.64047 7.50001 4.14062 8.28126 3.67455C9.48269 3.12589 10.6858 3.22328 11.5005 3.43569C11.8307 3.52179 12.1884 3.28644 12.1884 2.94517Z" fill="white"/>
<path fill-rule="evenodd" clip-rule="evenodd" d="M20.1563 17.3652C19.407 17.751 18.557 17.9688 17.6563 17.9688C14.6359 17.9688 12.1875 15.5203 12.1875 12.5C12.1875 9.47969 14.6359 7.03125 17.6563 7.03125C18.557 7.03125 19.407 7.24904 20.1563 7.63484V7.5C20.1563 7.24112 20.3661 7.03125 20.625 7.03125H22.6563C22.9151 7.03125 23.125 7.24112 23.125 7.5V17.5C23.125 17.7589 22.9151 17.9688 22.6563 17.9688H20.625C20.3661 17.9688 20.1563 17.7589 20.1563 17.5V17.3652ZM20.1563 12.5C20.1563 13.8807 19.037 15 17.6563 15C16.2755 15 15.1563 13.8807 15.1563 12.5C15.1563 11.1193 16.2755 10 17.6563 10C19.037 10 20.1563 11.1193 20.1563 12.5Z" fill="white"/>
<path fill-rule="evenodd" clip-rule="evenodd" d="M40.7813 17.9688C43.8016 17.9688 46.25 15.5203 46.25 12.5C46.25 9.47969 43.8016 7.03125 40.7813 7.03125C37.7609 7.03125 35.3125 9.47969 35.3125 12.5C35.3125 15.5203 37.7609 17.9688 40.7813 17.9688ZM40.7813 15C42.162 15 43.2813 13.8807 43.2813 12.5C43.2813 11.1193 42.162 10 40.7813 10C39.4005 10 38.2812 11.1193 38.2812 12.5C38.2812 13.8807 39.4005 15 40.7813 15Z" fill="white"/>
<path d="M47.5 7.03125C47.2411 7.03125 47.0313 7.24112 47.0313 7.5V17.5C47.0313 17.7589 47.2411 17.9688 47.5 17.9688H49.5313C49.7901 17.9688 50 17.7589 50 17.5V11.875C50.1875 10.125 51.7969 9.73958 52.5781 9.76563C53.412 9.76563 54.1149 10.0481 54.5678 10.3156C54.7434 10.4193 55 10.2961 55 10.0922V8.16324C55 7.89613 54.8654 7.64161 54.6176 7.54177C53.9268 7.26342 53.0121 7.1875 52.5781 7.1875C51.3281 7.1875 50.3385 7.55208 50 7.73438V7.5C50 7.24112 49.7901 7.03125 49.5313 7.03125H47.5Z" fill="white"/>
<path d="M24.0666 7.50047C24.1692 13.3235 26.1832 17.9688 29.5312 17.9688C32.8793 17.9688 34.8933 13.3235 34.9959 7.50047C35.0004 7.24163 34.7901 7.03125 34.5313 7.03125H32.5C32.2411 7.03125 32.0317 7.24148 32.027 7.50032C31.9508 11.683 30.8626 15 29.5312 15C28.1999 15 27.1117 11.683 27.0355 7.50032C27.0308 7.24148 26.8214 7.03125 26.5625 7.03125H24.5313C24.2724 7.03125 24.0621 7.24163 24.0666 7.50047Z" fill="white"/>
</g>
</g>
</svg>
