<svg width="20" height="20" viewBox="0 0 20 20" fill="none" xmlns="http://www.w3.org/2000/svg">
<g id="Icon_house_anni">
<g id="Vector">
<path d="M19.114 6.16216L15.2654 3.39237C14.5384 2.86921 13.5657 2.86921 12.8388 3.39237L8.99015 6.16216C8.43445 6.56209 8.10417 7.21106 8.10417 7.90302V14.5681C8.10417 15.7306 9.02024 16.6791 10.1641 16.7009L11.1834 16.7203C11.7706 16.7315 12.2527 16.2508 12.2527 15.6539V13.7384C12.2527 13.1493 12.7226 12.6718 13.3023 12.6718H15.0517C15.6314 12.6718 16.1013 13.1493 16.1013 13.7384V15.6526C16.1013 16.25 16.5841 16.7309 17.1719 16.719L17.9426 16.7034C19.0854 16.6802 20 15.7321 20 14.5706V7.90302C20 7.21106 19.6697 6.56209 19.114 6.16216Z" fill="#FFF5B7"/>
<path d="M15.2654 3.39237L19.114 6.16216C19.5692 6.48977 19.8734 6.98451 19.9684 7.5331H8.13611C8.23115 6.98451 8.53493 6.48977 8.99015 6.16216L12.8388 3.39237C13.5657 2.86921 14.5384 2.86921 15.2654 3.39237Z" fill="#FF5862"/>
<path d="M13.5117 8.7189C13.6817 8.18716 14.422 8.18716 14.5921 8.7189C14.6681 8.95671 14.8862 9.11771 15.1322 9.11771C15.6824 9.11771 15.9112 9.83317 15.4661 10.1618C15.267 10.3088 15.1837 10.5693 15.2598 10.8071C15.4298 11.3388 14.8309 11.781 14.3857 11.4524C14.1867 11.3054 13.9171 11.3054 13.718 11.4524C13.2729 11.781 12.674 11.3388 12.844 10.8071C12.92 10.5693 12.8368 10.3088 12.6377 10.1618C12.1926 9.83317 12.4213 9.11771 12.9715 9.11771C13.2176 9.11771 13.4357 8.95671 13.5117 8.7189Z" fill="#FFF5B7"/>
<path fill-rule="evenodd" clip-rule="evenodd" d="M18.4117 17V16.9973C19.2972 16.9468 20 16.2011 20 15.2886C20 14.3434 19.246 13.5772 18.3159 13.5772C17.5354 13.5772 16.879 14.1166 16.6879 14.8486C16.532 14.7653 16.3545 14.7182 16.1662 14.7182C15.5461 14.7182 15.0434 15.229 15.0434 15.8591C15.0434 16.4892 15.5461 17 16.1662 17H18.4117Z" fill="#34BE82"/>
<path d="M5 13.0735C5 12.5172 5.44383 12.0662 5.99132 12.0662C6.53881 12.0662 6.98264 12.5172 6.98264 13.0735V15.5919C6.98264 16.1483 6.53881 16.5993 5.99132 16.5993C5.44383 16.5993 5 16.1483 5 15.5919V13.0735Z" fill="#BB785F"/>
<path fill-rule="evenodd" clip-rule="evenodd" d="M8.5 4.5C8.5 4.68274 8.48039 4.86096 8.44316 5.03253C9.88988 5.24677 11 6.49371 11 8C11 9.65686 9.65686 11 8 11H4C2.067 11 0.5 9.43298 0.5 7.5C0.5 5.7215 1.82657 4.25281 3.54422 4.02942C3.76436 2.87366 4.78015 2 6 2C7.38071 2 8.5 3.11926 8.5 4.5Z" fill="#34BE82"/>
</g>
</g>
</svg>
