<svg width="12" height="16" viewBox="0 0 12 16" fill="none" xmlns="http://www.w3.org/2000/svg">
<path d="M7.01467 1C7.01467 1.55228 6.56039 2 6 2C5.43961 2 4.98533 1.55228 4.98533 1C4.98533 0.447715 5.43961 0 6 0C6.56039 0 7.01467 0.447715 7.01467 1Z" fill="#222222"/>
<path d="M0.505347 5.98273C0.743489 3.16633 3.13239 1 6 1C8.86761 1 11.2565 3.16633 11.4947 5.98273L11.9964 11.917C12.0457 12.5 11.5789 13 10.9853 13H1.01474C0.421116 13 -0.0457225 12.5 0.003575 11.917L0.505347 5.98273Z" fill="#222222"/>
<path d="M8.02933 14C8.02933 15.1046 7.12077 16 6 16C4.87923 16 3.97067 15.1046 3.97067 14H8.02933Z" fill="#222222"/>
<path d="M3 7H9M6 4L6 10" stroke="white" stroke-width="1.5" stroke-linecap="round"/>
</svg>
