<svg width="20" height="20" viewBox="0 0 20 20" fill="none" xmlns="http://www.w3.org/2000/svg">
<path d="M9.99998 5.39168C12.3 5.39168 14.1666 7.25834 14.1666 9.55834C14.1666 9.98334 14.0833 10.3917 13.9666 10.775L16.5166 13.325C17.675 12.3 18.5916 11.0167 19.1666 9.55001C17.725 5.90001 14.1666 3.30834 9.99998 3.30834C8.94165 3.30834 7.92498 3.47501 6.96665 3.78334L8.77498 5.59168C9.16665 5.47501 9.57498 5.39168 9.99998 5.39168ZM2.25831 2.60834C1.93331 2.93334 1.93331 3.45834 2.25831 3.78334L3.89998 5.42501C2.54998 6.50001 1.47498 7.91668 0.833313 9.55834C2.27498 13.2167 5.83331 15.8083 9.99998 15.8083C11.2666 15.8083 12.475 15.5583 13.5916 15.125L15.8583 17.3917C16.1833 17.7167 16.7083 17.7167 17.0333 17.3917C17.3583 17.0667 17.3583 16.5417 17.0333 16.2167L3.44165 2.60834C3.11665 2.28334 2.58331 2.28334 2.25831 2.60834ZM9.99998 13.725C7.69998 13.725 5.83331 11.8583 5.83331 9.55834C5.83331 8.91668 5.98331 8.30834 6.24165 7.77501L7.54998 9.08334C7.52498 9.23334 7.49998 9.39168 7.49998 9.55834C7.49998 10.9417 8.61665 12.0583 9.99998 12.0583C10.1666 12.0583 10.3166 12.0333 10.475 12L11.7833 13.3083C11.2416 13.575 10.6416 13.725 9.99998 13.725ZM12.475 9.28334C12.35 8.11668 11.4333 7.20834 10.275 7.08334L12.475 9.28334Z" fill="#424242"/>
</svg>
