<svg width="20" height="20" viewBox="0 0 20 20" fill="none" xmlns="http://www.w3.org/2000/svg">
<path fill-rule="evenodd" clip-rule="evenodd" d="M18 10.5C18 15.1944 14.1944 19 9.5 19C4.80558 19 1 15.1944 1 10.5C1 5.80558 4.80558 2 9.5 2C14.1944 2 18 5.80558 18 10.5Z" fill="#EEEEEE"/>
<path d="M6.65081 8.52073C6.23148 8.16131 5.60018 8.20987 5.24076 8.6292C4.88134 9.04852 4.9299 9.67982 5.34923 10.0392L8.84923 13.0392C9.22372 13.3602 9.77632 13.3602 10.1508 13.0392L13.6508 10.0392C14.0701 9.67982 14.1187 9.04852 13.7593 8.6292C13.3999 8.20987 12.7686 8.16131 12.3492 8.52073L9.50002 10.9629L6.65081 8.52073Z" fill="#222222"/>
</svg>
