<svg width="20" height="20" viewBox="0 0 20 20" fill="none" xmlns="http://www.w3.org/2000/svg">
<path d="M20 10C18.75 14.1421 13.4518 16 10 16C6.54822 16 1.25 14.1421 0 10C1.25 5.85786 6.54822 4 10 4C13.4518 4 18.75 5.85786 20 10Z" fill="#222222"/>
<path d="M15 10C15 12.651 12.7614 14.8 10 14.8C7.23858 14.8 5 12.651 5 10C5 7.34903 7.23858 5.2 10 5.2C12.7614 5.2 15 7.34903 15 10Z" fill="white"/>
<path d="M12.5 10C12.5 11.3255 11.3807 12.4 10 12.4C8.61929 12.4 7.5 11.3255 7.5 10C7.5 8.67452 8.61929 7.6 10 7.6C11.3807 7.6 12.5 8.67452 12.5 10Z" fill="#222222"/>
<line x1="2.66421" y1="1.125" x2="18.75" y2="17.2108" stroke="white" stroke-width="2" stroke-linecap="round"/>
<line x1="1.41421" y1="2.375" x2="17.5" y2="18.4608" stroke="#222222" stroke-width="2" stroke-linecap="round"/>
</svg>
