<svg width="23" height="17" viewBox="0 0 23 17" fill="none" xmlns="http://www.w3.org/2000/svg">
<path d="M9.87366 7.93702L15.4368 3.12723L21 7.93702V15.1808H9.87366V7.93702Z" fill="#222222" stroke="#222222" stroke-width="3" stroke-linejoin="round"/>
<line x1="13.4055" y1="13.5036" x2="17.4687" y2="13.5036" stroke="white" stroke-width="1.5" stroke-linecap="round"/>
<path d="M9 2.85714C9 4.4351 7.65685 5.71429 6 5.71429C4.34315 5.71429 3 4.4351 3 2.85714C3 1.27919 4.34315 0 6 0C7.65685 0 9 1.27919 9 2.85714Z" fill="#222222"/>
<path d="M7.5 6.42857C7.5 8.40102 5.82107 10 3.75 10C1.67893 10 0 8.40102 0 6.42857C0 4.45613 1.67893 2.85714 3.75 2.85714C5.82107 2.85714 7.5 4.45613 7.5 6.42857Z" fill="#222222"/>
<path d="M12 6.78571C12 8.56091 10.489 10 8.625 10C6.76104 10 5.25 8.56091 5.25 6.78571C5.25 5.01051 6.76104 3.57143 8.625 3.57143C10.489 3.57143 12 5.01051 12 6.78571Z" fill="#222222"/>
<path d="M3.75 5.71429H9V10H3.75L3.75 5.71429Z" fill="#222222"/>
<rect x="5" y="11" width="2" height="5.56" rx="1" fill="#222222"/>
</svg>
