<svg width="20" height="20" viewBox="0 0 20 20" fill="none" xmlns="http://www.w3.org/2000/svg">
<g id="Icon_home" clip-path="url(#clip0_1222_3559)">
<path id="Vector" d="M17.3053 5.12319L11.8053 1.22797C10.7665 0.492236 9.37644 0.492237 8.3376 1.22797L2.8376 5.12319C2.04347 5.68561 1.57147 6.59828 1.57147 7.57139V16.9446C1.57147 18.5795 2.8806 19.9134 4.51526 19.9441L5.97185 19.9714C6.81113 19.9871 7.49996 19.3111 7.49996 18.4716V15.7778C7.49996 14.9494 8.17153 14.2778 8.99996 14.2778H11.5C12.3284 14.2778 13 14.9493 13 15.7778V18.4698C13 19.3099 13.6899 19.9862 14.5299 19.9695L15.6313 19.9475C17.2645 19.915 18.5715 18.5817 18.5715 16.9481V7.57139C18.5715 6.59828 18.0995 5.68561 17.3053 5.12319Z" fill="black"/>
</g>
<defs>
<clipPath id="clip0_1222_3559">
<rect width="20" height="20" fill="white"/>
</clipPath>
</defs>
</svg>
