<svg width="20" height="20" viewBox="0 0 20 20" fill="none" xmlns="http://www.w3.org/2000/svg">
<g id="Icon_more" clip-path="url(#clip0_4638_6207)">
<g id="Vector">
<path d="M10 4C8.89543 4 8 3.10457 8 2C8 0.89543 8.89543 -1.35705e-07 10 -8.74228e-08C11.1046 -3.91405e-08 12 0.89543 12 2C12 3.10457 11.1046 4 10 4Z" fill="#222222"/>
<path d="M10 12C8.89543 12 8 11.1046 8 9.99999C8 8.89542 8.89543 7.99999 10 7.99999C11.1046 7.99999 12 8.89542 12 9.99999C12 11.1046 11.1046 12 10 12Z" fill="#222222"/>
<path d="M10 20C8.89543 20 8 19.1046 8 18C8 16.8954 8.89543 16 10 16C11.1046 16 12 16.8954 12 18C12 19.1046 11.1046 20 10 20Z" fill="#222222"/>
</g>
</g>
<defs>
<clipPath id="clip0_4638_6207">
<rect width="20" height="20" fill="white"/>
</clipPath>
</defs>
</svg>
