<svg width="40" height="40" viewBox="0 0 40 40" fill="none" xmlns="http://www.w3.org/2000/svg">
<g clip-path="url(#clip0_3410_6637)">
<rect width="40" height="40" rx="20" fill="white"/>
<path fill-rule="evenodd" clip-rule="evenodd" d="M20 40C31.0457 40 40 31.0457 40 20C40 8.9543 31.0457 0 20 0C8.9543 0 0 8.9543 0 20C0 31.0457 8.9543 40 20 40ZM21.25 14.25C21.25 13.5596 20.6904 13 20 13C19.3096 13 18.75 13.5596 18.75 14.25V19.25H13.75C13.0596 19.25 12.5 19.8096 12.5 20.5C12.5 21.1904 13.0596 21.75 13.75 21.75H18.75V26.75C18.75 27.4404 19.3096 28 20 28C20.6904 28 21.25 27.4404 21.25 26.75V21.75H26.25C26.9404 21.75 27.5 21.1904 27.5 20.5C27.5 19.8096 26.9404 19.25 26.25 19.25H21.25V14.25Z" fill="#FF5862"/>
</g>
<defs>
<clipPath id="clip0_3410_6637">
<rect width="40" height="40" fill="white"/>
</clipPath>
</defs>
</svg>
