<svg width="48" height="48" viewBox="0 0 48 48" fill="none" xmlns="http://www.w3.org/2000/svg">
<path d="M24 11.5C15.6667 11.5 8.54999 16.6833 5.66666 24C8.54999 31.3167 15.6667 36.5 24 36.5C32.3333 36.5 39.45 31.3167 42.3333 24C39.45 16.6833 32.3333 11.5 24 11.5ZM24 32.3333C19.4 32.3333 15.6667 28.6 15.6667 24C15.6667 19.4 19.4 15.6667 24 15.6667C28.6 15.6667 32.3333 19.4 32.3333 24C32.3333 28.6 28.6 32.3333 24 32.3333ZM24 19C21.2333 19 19 21.2333 19 24C19 26.7667 21.2333 29 24 29C26.7667 29 29 26.7667 29 24C29 21.2333 26.7667 19 24 19Z" fill="#424242"/>
</svg>
