<svg width="20" height="20" viewBox="0 0 20 20" fill="none" xmlns="http://www.w3.org/2000/svg">
<g id="Icon_congrat_anni">
<g id="Vector">
<path d="M3.82886 18.8842C2.14929 19.4841 0.527556 17.8623 1.1274 16.1828L4.01267 8.10403C4.53456 6.64274 6.40061 6.22313 7.49782 7.32034L12.6913 12.5138C13.7885 13.611 13.3689 15.4771 11.9076 15.999L3.82886 18.8842Z" fill="#5800FF"/>
<path d="M10.4435 2.92806C11.1084 2.5893 11.8183 3.29922 11.4795 3.96407C11.328 4.26139 11.3852 4.62246 11.6212 4.85842C12.1488 5.38605 11.693 6.28059 10.956 6.16387C10.6264 6.11166 10.3007 6.27763 10.1492 6.57496C9.81044 7.2398 8.81882 7.08275 8.7021 6.34576C8.64989 6.01617 8.3914 5.75767 8.06181 5.70547C7.32482 5.58874 7.16776 4.59713 7.83261 4.25837C8.12994 4.10688 8.2959 3.78116 8.2437 3.45156C8.12697 2.71457 9.02152 2.25878 9.54915 2.78641C9.78511 3.02237 10.1462 3.07955 10.4435 2.92806Z" fill="#FDB72B"/>
<path d="M16 2.5C16 3.32843 15.3284 4 14.5 4C13.6716 4 13 3.32843 13 2.5C13 1.67157 13.6716 1 14.5 1C15.3284 1 16 1.67157 16 2.5Z" fill="#34BE82"/>
<path d="M11.9999 7.99994C11.9999 8.27608 11.7761 8.49994 11.4999 8.49994C11.2238 8.49994 10.9999 8.27608 10.9999 7.99994C10.9999 7.7238 11.2238 7.49994 11.4999 7.49994C11.7761 7.49994 11.9999 7.7238 11.9999 7.99994Z" fill="#FF6217"/>
<path d="M16.318 6.09819C16.9685 6.74873 16.8144 7.62701 16.7475 7.83734C16.9579 7.77051 17.8361 7.61638 18.4867 8.26692C19.0435 8.82373 19.6015 11.3292 15.4213 11.6039C14.8813 11.6394 14.3211 11.676 13.6646 11.5345C13.3569 11.4683 13.1166 11.228 13.0503 10.9203C12.9089 10.2637 12.9455 9.70361 12.981 9.16357C13.2556 4.98339 15.7611 5.54138 16.318 6.09819Z" fill="#FF5862"/>
<path d="M17.707 4.35355C17.9023 4.15829 18.2188 4.15829 18.4141 4.35355L18.7677 4.70711C18.9629 4.90237 18.9629 5.21895 18.7677 5.41421L18.4141 5.76777C18.2188 5.96303 17.9023 5.96303 17.707 5.76777L17.3534 5.41421C17.1582 5.21895 17.1582 4.90237 17.3534 4.70711L17.707 4.35355Z" fill="#9900F0"/>
</g>
</g>
</svg>
