<svg width="20" height="20" viewBox="0 0 20 20" fill="none" xmlns="http://www.w3.org/2000/svg">
<path d="M12 3.5C12 4.32843 11.3284 5 10.5 5C9.67157 5 9 4.32843 9 3.5C9 2.80893 9.79829 1.87909 10.2349 1.37051C10.3673 1.21628 10.4665 1.1008 10.5 1.04247C10.5335 1.1008 10.6327 1.21628 10.7651 1.37051C11.2017 1.87909 12 2.80893 12 3.5Z" fill="black"/>
<path d="M10.5 0.999999C10.483 0.999999 10.4841 1.01481 10.5 1.04247C10.5159 1.01481 10.517 0.999999 10.5 0.999999Z" fill="black"/>
<path d="M12 6.04247V8.54247H15C16.6569 8.54247 18 9.88561 18 11.5425V12.0425L3 12.0425V11.5425C3 9.88561 4.34315 8.54247 6 8.54247H9V6.04247H12Z" fill="black"/>
<path d="M3 15.5425V13.5425L18 13.5425V15.5425C18 17.1993 16.6569 18.5425 15 18.5425H6C4.34315 18.5425 3 17.1993 3 15.5425Z" fill="black"/>
</svg>
