<svg width="18" height="20" viewBox="0 0 18 20" fill="none" xmlns="http://www.w3.org/2000/svg">
<path d="M18 3.33333C18 5.17428 16.489 6.66667 14.625 6.66667C12.761 6.66667 11.25 5.17428 11.25 3.33333C11.25 1.49238 12.761 0 14.625 0C16.489 0 18 1.49238 18 3.33333Z" fill="#222222"/>
<path d="M6.75 10C6.75 11.8409 5.23896 13.3333 3.375 13.3333C1.51104 13.3333 0 11.8409 0 10C0 8.15905 1.51104 6.66667 3.375 6.66667C5.23896 6.66667 6.75 8.15905 6.75 10Z" fill="#222222"/>
<path d="M18 16.6667C18 18.5076 16.489 20 14.625 20C12.761 20 11.25 18.5076 11.25 16.6667C11.25 14.8257 12.761 13.3333 14.625 13.3333C16.489 13.3333 18 14.8257 18 16.6667Z" fill="#222222"/>
<path d="M4 9.65955L12.8868 4M13 16L4.02481 10.4999" stroke="#222222" stroke-width="2" stroke-linecap="round"/>
</svg>
