<svg width="20" height="20" viewBox="0 0 20 20" fill="none" xmlns="http://www.w3.org/2000/svg">
<path fill-rule="evenodd" clip-rule="evenodd" d="M10.0093 2.96601L8.86679 1.94748C8.51533 1.62923 7.87732 1.18909 7.07883 1.0463C6.22586 0.893756 5.25317 1.09629 4.38312 1.98276C3.42593 2.95801 3.44391 4.13857 3.75954 5.01571C3.78775 5.0941 3.81845 5.17076 3.85125 5.24548H1.90001C1.40295 5.24548 1 5.65603 1 6.16247V10.0596C1 10.5661 1.40295 10.9766 1.90001 10.9766H2.12523V16.249C2.12523 17.7684 3.33406 19 4.82524 19H15.1752C16.6664 19 17.8752 17.7684 17.8752 16.249V10.9766H18.1C18.5971 10.9766 19 10.5661 19 10.0596V6.16247C19 5.65603 18.5971 5.24548 18.1 5.24548H16.1673C16.2001 5.17076 16.2308 5.0941 16.259 5.01571C16.5746 4.13857 16.5926 2.95801 15.6354 1.98276C14.7654 1.09629 13.7927 0.893756 12.9397 1.0463C12.1412 1.18909 11.5032 1.62921 11.1518 1.94747L10.0093 2.96601ZM14.1832 5.24548C14.1962 5.23989 14.2093 5.2346 14.2227 5.22965C14.2192 5.23088 14.2172 5.23102 14.2172 5.23102C14.2169 5.23047 14.2199 5.22808 14.2259 5.22324C14.2474 5.20597 14.3075 5.15762 14.3951 5.05146C14.5242 4.89495 14.6535 4.68237 14.738 4.44754C14.9005 3.99577 14.8827 3.55011 14.4899 3.14989C14.0099 2.66089 13.5762 2.60827 13.2198 2.67202C12.811 2.74512 12.4378 2.99069 12.2265 3.18255L12.2211 3.18744L9.91255 5.24548H14.1832ZM7.45239 5.24548L8.7792 4.06262L7.79206 3.18258C7.58068 2.99072 7.20752 2.74512 6.79876 2.67202C6.44228 2.60827 6.00859 2.66089 5.52864 3.14989C5.13583 3.55011 5.11798 3.99577 5.28055 4.44754C5.36505 4.68237 5.49429 4.89495 5.62344 5.05146C5.71104 5.15761 5.77118 5.20597 5.79266 5.22324L5.79267 5.22325L5.79269 5.22327C5.79868 5.22809 5.80165 5.23048 5.80136 5.23102C5.80136 5.23102 5.79934 5.23088 5.79583 5.22965C5.8092 5.2346 5.82237 5.23989 5.83533 5.24548H7.45239ZM11 9C11 8.44772 10.5523 8 10 8C9.44771 8 9 8.44772 9 9V15C9 15.5523 9.44772 16 10 16C10.5523 16 11 15.5523 11 15V9Z" fill="#222222"/>
</svg>
