<svg width="20" height="20" viewBox="0 0 20 20" fill="none" xmlns="http://www.w3.org/2000/svg">
<g id="Icon_gradu_anni">
<g id="Vector">
<path fill-rule="evenodd" clip-rule="evenodd" d="M6.63135 8C5.52678 8 4.63135 8.89543 4.63135 10V14C4.63135 15.1046 5.52678 16 6.63135 16H14.2627C15.3673 16 16.2627 15.1046 16.2627 14V10C16.2627 8.89543 15.3673 8 14.2627 8H6.63135ZM19 8.5C18.4477 8.5 18 8.94772 18 9.5V15C18 15.5523 18.4477 16 19 16C19.5523 16 20 15.5523 20 15V9.5C20 8.94772 19.5523 8.5 19 8.5Z" fill="#40394A"/>
<path fill-rule="evenodd" clip-rule="evenodd" d="M10.9472 4.10557C10.6657 3.96481 10.3343 3.96481 10.0528 4.10557L1.55279 8.35557C1.214 8.52496 1 8.87123 1 9.25C1 9.62877 1.214 9.97504 1.55279 10.1444L10.0528 14.3944C10.3343 14.5352 10.6657 14.5352 10.9472 14.3944L19.4472 10.1444C19.786 9.97504 20 9.62877 20 9.25C20 8.87123 19.786 8.52496 19.4472 8.35557L10.9472 4.10557Z" fill="#1C1427"/>
</g>
</g>
</svg>
