<svg width="20" height="20" viewBox="0 0 20 20" fill="none" xmlns="http://www.w3.org/2000/svg">
<rect x="2" y="2" width="16" height="16" rx="3" fill="#222222"/>
<rect width="20" height="20" rx="3" fill="#222222"/>
<path d="M12 9.94737L13.3793 11L16 9" stroke="white" stroke-width="1.5" stroke-linecap="round" stroke-linejoin="round"/>
<path d="M8.55882 7.90588C8.55882 8.95847 7.72923 9.81176 6.70588 9.81176C5.68253 9.81176 4.85294 8.95847 4.85294 7.90588C4.85294 6.85329 5.68253 6 6.70588 6C7.72923 6 8.55882 6.85329 8.55882 7.90588Z" fill="white"/>
<path d="M10.4118 13.3513C10.4118 14.9552 8.75258 15 6.70588 15C4.65918 15 3 14.9552 3 13.3513C3 11.7473 4.65918 10.4471 6.70588 10.4471C8.75258 10.4471 10.4118 11.7473 10.4118 13.3513Z" fill="white"/>
<path d="M3 13.0941H10.4118V13.7294C10.4118 14.4311 9.8587 15 9.17647 15H4.23529C3.55306 15 3 14.4311 3 13.7294V13.0941Z" fill="white"/>
</svg>
