<svg width="48" height="48" viewBox="0 0 48 48" fill="none" xmlns="http://www.w3.org/2000/svg">
<path d="M34 25.6667H25.6667V34C25.6667 34.9167 24.9167 35.6667 24 35.6667C23.0833 35.6667 22.3333 34.9167 22.3333 34V25.6667H14C13.0833 25.6667 12.3333 24.9167 12.3333 24C12.3333 23.0833 13.0833 22.3333 14 22.3333H22.3333V14C22.3333 13.0833 23.0833 12.3333 24 12.3333C24.9167 12.3333 25.6667 13.0833 25.6667 14V22.3333H34C34.9167 22.3333 35.6667 23.0833 35.6667 24C35.6667 24.9167 34.9167 25.6667 34 25.6667Z" fill="#424242"/>
</svg>
