<svg width="20" height="20" viewBox="0 0 20 20" fill="none" xmlns="http://www.w3.org/2000/svg">
<g id="Icon_couple_anni">
<g id="Vector">
<path d="M4.89329 6.8833C6.6071 6.8833 7.56098 8.24322 7.75 8.6083C7.93901 8.24322 8.8929 6.8833 10.6067 6.8833C12.0736 6.8833 16.1089 9.44863 10.9644 15.3166C10.2252 16.1599 9.45502 17.0376 8.19078 17.7636C7.91783 17.9204 7.58217 17.9204 7.30922 17.7636C6.04498 17.0376 5.27481 16.1599 4.53555 15.3166C-0.608913 9.44863 3.42641 6.8833 4.89329 6.8833Z" fill="#FF5862"/>
<path d="M13.5095 2C14.4037 2 14.9014 2.70952 15 2.9C15.0986 2.70952 15.5963 2 16.4905 2C17.2558 2 19.3612 3.33843 16.6771 6.4C16.3329 6.79267 15.9757 7.1997 15.434 7.55196C15.1701 7.72354 14.8299 7.72354 14.566 7.55196C14.0243 7.1997 13.6671 6.79267 13.3229 6.4C10.6388 3.33843 12.7442 2 13.5095 2Z" fill="#FF5862"/>
</g>
</g>
</svg>
