<svg width="14" height="17" viewBox="0 0 14 17" fill="none" xmlns="http://www.w3.org/2000/svg">
<path d="M10.5 3.6C10.5 5.58823 8.933 7.2 7 7.2C5.067 7.2 3.5 5.58823 3.5 3.6C3.5 1.61177 5.067 0 7 0C8.933 0 10.5 1.61177 10.5 3.6Z" fill="#222222"/>
<path d="M14 13.8857C14 16.9154 10.866 17 7 17C3.13401 17 0 16.9154 0 13.8857C0 10.856 3.13401 8.4 7 8.4C10.866 8.4 14 10.856 14 13.8857Z" fill="#222222"/>
<path d="M0 13.4H14V14.6C14 15.9255 12.9553 17 11.6667 17H2.33333C1.04467 17 0 15.9255 0 14.6V13.4Z" fill="#222222"/>
</svg>
