<svg width="20" height="20" viewBox="0 0 20 20" fill="none" xmlns="http://www.w3.org/2000/svg">
<path d="M9.55279 4.10557C9.83431 3.96481 10.1657 3.96481 10.4472 4.10557L18.9472 8.35557C19.286 8.52496 19.5 8.87123 19.5 9.25C19.5 9.29202 19.4974 9.33364 19.4922 9.37466C19.4974 9.41572 19.5 9.45755 19.5 9.5V15C19.5 15.5523 19.0523 16 18.5 16C17.9477 16 17.5 15.5523 17.5 15V10.868L16 11.618V14C16 15.1046 15.1046 16 14 16H6C4.89543 16 4 15.1046 4 14V11.618L1.05279 10.1444C0.714002 9.97504 0.5 9.62877 0.5 9.25C0.5 8.87123 0.714002 8.52496 1.05279 8.35557L9.55279 4.10557Z" fill="#222222"/>
</svg>
