<svg width="20" height="12" viewBox="0 0 20 12" fill="none" xmlns="http://www.w3.org/2000/svg">
<path d="M20 6C18.75 10.1421 13.4518 12 10 12C6.54822 12 1.25 10.1421 0 6C1.25 1.85786 6.54822 0 10 0C13.4518 0 18.75 1.85786 20 6Z" fill="#222222"/>
<path d="M15 6C15 8.65097 12.7614 10.8 10 10.8C7.23858 10.8 5 8.65097 5 6C5 3.34903 7.23858 1.2 10 1.2C12.7614 1.2 15 3.34903 15 6Z" fill="white"/>
<path d="M12.5 6C12.5 7.32548 11.3807 8.4 10 8.4C8.61929 8.4 7.5 7.32548 7.5 6C7.5 4.67452 8.61929 3.6 10 3.6C11.3807 3.6 12.5 4.67452 12.5 6Z" fill="#222222"/>
</svg>
